PathFileType	4	(X/Y/Z)	D:\TRACE\spot_10-12-23\spot_body_motion_1_5-platform.trc
DataRate	CameraRate	NumFrames	NumMarkers	Units	OrigDataRate	OrigDataStartFrame	OrigNumFrames
100.00	100.00	      30	5	mm	100.00	2626	      7000
Frame#	Time	Left_Front			Right_Front			Left_Aft			Right_Aft			Post			
		X1	Y1	Z1	X2	Y2	Z2	X3	Y3	Z3	X4	Y4	Z4	X5	Y5	Z5	

2626	26.250	-776.51715	-21.83771	-647.70850	796.36963	-17.05284	-640.83582	-693.34833	24.50576	489.08777	723.91736	32.96183	575.26483	6.37205	701.67084	-996.87549	
2627	26.260	-777.49475	-21.61691	-647.80164	795.17151	-16.88833	-640.78296	-694.30237	24.29069	489.12250	722.83691	32.83623	575.27808	5.46125	701.79535	-996.76447	
2628	26.270	-778.25073	-21.73422	-647.62372	794.18640	-17.03107	-640.88635	-695.36707	24.25082	489.15588	721.91364	32.70276	575.27271	4.78828	701.93237	-996.67273	
2629	26.280	-779.08356	-21.95294	-647.65308	793.25067	-16.94319	-640.90875	-696.27765	24.35119	489.24896	720.66565	32.51046	575.34320	3.93485	702.05743	-996.35474	
2630	26.290	-780.39343	-21.54913	-647.51294	792.40588	-16.85706	-640.84863	-697.28235	24.20413	489.29684	720.01733	32.52669	575.41425	2.52483	702.21204	-996.14935	
2631	26.300	-780.99854	-21.57923	-647.78546	791.29755	-16.75046	-640.64673	-698.19861	24.12833	489.29666	719.23431	32.55756	575.48511	1.58509	702.38849	-996.03729	
2632	26.310	-782.01074	-21.23247	-647.62524	790.44635	-16.44305	-640.79950	-698.98041	24.15648	489.27707	717.84674	32.24083	575.43823	0.83625	702.54889	-995.77783	
2633	26.320	-783.18042	-21.11561	-647.58344	789.56390	-16.23759	-640.72345	-700.21179	23.91245	489.35751	717.07611	32.18521	575.51685	-0.27648	702.71906	-995.37360	
2634	26.330	-784.16583	-20.98574	-647.48730	788.32349	-16.08034	-640.54865	-701.03900	23.83678	489.43420	716.23688	31.99045	575.60168	-1.24002	702.93408	-995.23010	
2635	26.340	-785.00739	-20.99141	-647.57867	787.74316	-16.02159	-640.68506	-702.04590	23.70511	489.49045	715.02484	31.84278	575.57709	-1.96888	703.21729	-994.96240	
2636	26.350	-785.54401	-20.99523	-647.77289	786.79797	-15.82489	-640.65900	-702.95721	23.54477	489.64877	714.17841	31.70881	575.69318	-3.13217	703.55469	-994.85760	
2637	26.360	-787.19812	-20.36082	-647.25830	785.33685	-15.65183	-640.70264	-703.96362	23.42258	489.62329	713.28473	31.54167	575.75574	-4.31222	703.91364	-994.78522	
2638	26.370	-788.05310	-19.98289	-647.47565	784.57599	-15.58890	-640.66248	-704.96527	23.23362	489.55371	712.20044	31.48703	575.79395	-4.95660	704.09790	-994.52911	
2639	26.380	-788.49164	-20.39956	-647.42072	783.76160	-15.48227	-640.35736	-705.86481	23.08755	489.55890	711.32251	31.43995	575.79468	-5.70250	704.36749	-994.24957	
2640	26.390	-789.94928	-20.00972	-647.21765	782.69128	-15.29649	-640.33118	-706.81079	22.97185	489.51413	710.36694	31.14605	575.91113	-6.94836	704.74371	-994.05487	
2641	26.400	-790.55249	-19.96683	-647.25610	781.58130	-15.04621	-640.31573	-707.87268	22.79354	489.64487	709.43481	30.87279	575.89355	-7.95869	705.04602	-993.88452	
2642	26.410	-791.70520	-19.75522	-647.16736	780.70111	-14.81446	-640.21667	-708.83636	22.78139	489.81604	708.20465	30.71174	575.98541	-8.87188	705.40967	-993.54688	
2643	26.420	-792.83008	-19.15209	-647.16962	779.97650	-14.56005	-640.33459	-709.81555	22.58342	489.86526	707.43652	30.50095	576.14111	-9.99338	705.87000	-993.29858	
2644	26.430	-793.56805	-19.02293	-647.15955	778.59070	-14.17000	-640.43500	-710.76984	22.35868	489.87155	706.66760	30.44182	576.21149	-10.72689	706.08844	-992.81049	
2645	26.440	-794.72168	-18.56709	-647.01849	777.80298	-13.89222	-640.21558	-711.71362	22.29723	489.87793	705.28613	30.22021	576.19904	-11.51365	706.52411	-992.29871	
2646	26.450	-795.66986	-18.33871	-647.03979	777.15295	-13.64760	-640.21973	-712.67273	22.09101	490.00705	704.55469	30.03475	576.30145	-12.56764	706.99988	-991.96167	
2647	26.460	-796.54065	-18.30685	-647.04889	775.92310	-13.42098	-640.12183	-713.52722	21.93697	490.12866	703.62042	29.62785	576.34357	-13.51805	707.37177	-991.52698	
2648	26.470	-797.45569	-17.99084	-646.76556	775.07727	-13.18790	-640.03137	-714.50946	21.75586	490.16022	702.56873	29.52650	576.35541	-14.25150	707.68951	-991.36530	
2649	26.480	-798.50555	-17.63889	-646.89148	774.11261	-12.84312	-639.98010	-715.47394	21.65073	490.39807	701.73199	29.23017	576.46948	-15.62892	708.10077	-990.98346	
2650	26.490	-799.26257	-17.51834	-646.93713	773.09088	-12.53275	-639.90234	-716.51099	21.40674	490.30072	700.75891	29.00845	576.60046	-16.69591	708.66858	-990.58954	
2651	26.500	-800.37079	-16.99350	-646.70770	772.25201	-12.33734	-639.88013	-717.34894	21.16018	490.32886	699.94598	28.90651	576.66815	-17.45047	709.08929	-990.24573	
2652	26.510	-801.32269	-16.60743	-646.78113	771.13867	-12.06905	-639.82770	-718.37195	20.85560	490.30121	698.73993	28.55165	576.52679	-18.23944	709.53290	-989.83795	
2653	26.520	-802.40784	-16.07958	-646.70264	770.29779	-11.80266	-639.79071	-719.19855	20.77688	490.30255	697.82269	28.24022	576.66406	-19.09332	709.95007	-989.47675	
2654	26.530	-803.11536	-15.92159	-646.53540	769.47253	-11.54030	-639.66669	-720.23846	20.64929	490.61353	697.27502	28.04136	576.81415	-20.08324	710.45502	-989.32916	
2655	26.540	-804.03009	-15.64664	-646.50946	768.56677	-11.10919	-639.47516	-721.10577	20.39965	490.75488	695.91290	27.75755	576.87616	-21.26452	711.14648	-988.98859	
